# AST/ASF file generated using VICON BodyLanguage
# -----------------------------------------------
:version 1.10
:name VICON
:units
  mass 1.0
  length 0.45
  angle deg
:documentation
   .ast/.asf automatically generated from VICON data using
   VICON BodyBuilder and BodyLanguage model FoxedUp or BRILLIANT.MOD
:root
   order TX TY TZ RX RY RZ
   axis XYZ
   position 0 0 0  
   orientation 0 0 0 
:bonedata
  begin
     id 1 
     name lhipjoint
     direction 0.635376 -0.686425 0.353719 
     length 2.47244 
     axis 0 0 0  XYZ
  end
  begin
     id 2 
     name lfemur
     direction 0.34202 -0.939693 0  
     length 7.25268  
     axis 0 0 20  XYZ
    dof rx ry rz
    limits (-160.0 20.0)
           (-70.0 70.0)
           (-60.0 70.0)
  end
  begin
     id 3 
     name ltibia
     direction 0.34202 -0.939693 0   
     length 7.6767   
     axis 0 0 20   XYZ
    dof rx
    limits (-10.0 170.0)
  end
  begin
     id 4 
     name lfoot
     direction 0.0803374 -0.220725 0.972022   
     length 2.22945   
     axis -90 7.62852e-016 20   XYZ
    dof rx rz
    limits (-45.0 90.0)
           (-70.0 20.0)
  end
  begin
     id 5 
     name ltoes
     direction 1.53579e-011 -4.21994e-011 1   
     length 1.11848   
     axis -90 7.62852e-016 20   XYZ
    dof rx
    limits (-90.0 20.0)
  end
  begin
     id 6 
     name rhipjoint
     direction -0.664428 -0.664335 0.342336   
     length 2.55466  
     axis 0 0 0  XYZ 
  end
  begin
     id 7 
     name rfemur
     direction -0.34202 -0.939693 0   
     length 6.83172   
     axis 0 0 -20   XYZ
    dof rx ry rz
    limits (-160.0 20.0)
           (-70.0 70.0)
           (-70.0 60.0)
  end
  begin
     id 8 
     name rtibia
     direction -0.34202 -0.939693 0   
     length 7.62692   
     axis 0 0 -20   XYZ
    dof rx
    limits (-10.0 170.0)
 end
 begin
     id 9 
     name rfoot
     direction -0.0949276 -0.260811 0.960711   
     length 2.19684  
     axis -90 -7.62852e-016 -20   XYZ
    dof rx rz
    limits (-45.0 90.0)
           (-20.0 70.0)
  end
  begin
     id 10 
     name rtoes
     direction -1.53543e-011 -4.2183e-011 1   
     length 1.09848   
     axis -90 -7.62852e-016 -20   XYZ
    dof rx
    limits (-90.0 20.0)
  end
  begin
     id 11 
     name lowerback
     direction 0.0118782 0.999815 -0.0151555   
     length 2.15772   
     axis 0 0 0   XYZ
    dof rx ry rz
    limits (-20.0 45.0)
           (-30.0 30.0)
           (-30.0 30.0)
  end
  begin
     id 12 
     name upperback
     direction 0.00130825 0.999065 0.0432113   
     length 2.14863   
     axis 0 0 0   XYZ
    dof rx ry rz
    limits (-20.0 45.0)
           (-30.0 30.0)
           (-30.0 30.0)
  end
  begin
     id 13 
     name thorax
     direction -0.00347005 0.998773 0.0494011   
     length 2.14936   
     axis 0 0 0   XYZ
    dof rx ry rz
    limits (-20.0 45.0)
           (-30.0 30.0)
           (-30.0 30.0)
  end
  begin
     id 14 
     name lowerneck
     direction -0.0262159 0.99424 0.103921   
     length 1.69373   
     axis 0 0 0   XYZ
    dof rx ry rz
    limits (-20.0 45.0)
           (-30.0 30.0)
           (-30.0 30.0)
  end
  begin
     id 15 
     name upperneck
     direction 0.0353511 0.977394 -0.20845   
     length 1.70857   
     axis 0 0 0   XYZ
    dof rx ry rz
    limits (-20.0 45.0)
           (-30.0 30.0)
           (-30.0 30.0)
  end
  begin
     id 16
     name head
     direction 0.0139214 0.996594 -0.0812836  
     length 1.72777  
     axis 0 0 0   XYZ
    dof rx ry rz
    limits (-20.0 45.0)
           (-30.0 30.0)
           (-30.0 30.0)
  end
  begin
     id 17 
     name lclavicle
     direction 0.841247 0.537205 -0.0609508  
     length 3.55371  
     axis 0 0 0   XYZ
    dof ry rz
    limits (-20.0 10.0)
           (0.0 20.0)
  end
  begin
     id 18 
     name lhumerus
     direction 1 -4.48964e-011 1.60116e-018   
     length 4.91377   
     axis -180 -30 -90   XYZ
    dof rx ry rz
    limits (-60.0 90.0)
           (-90.0 90.0)
           (-90.0 90.0)
  end
  begin
     id 19
     name lradius
     direction 1 -4.48989e-011 -8.93847e-027   
     length 3.00291   
     axis -180 -30 -90   XYZ
    dof rx
    limits (-10.0 170.0)
  end
  begin
     id 20
     name lwrist
     direction 1 -4.48932e-011 -7.31504e-027   
     length 1.50145   
     axis 5.74121e-015 90 90   XYZ
    dof ry
    limits (-180.0 0.0)
 end
  begin
     id 21 
     name lhand
     direction 1 -4.48971e-011 -1.46301e-026   
     length 0.450922   
     axis 9.33524e-015 90 90   XYZ
    dof rx rz
    limits (-90.0 90.0)
           (-45.0 45.0)
  end
  begin
     id 22 
     name lfingers
     direction 1 -4.49039e-011 -2.92602e-026   
     length 0.363545   
     axis 1.86705e-014 90 90   XYZ
    dof rx
    limits (0.0 90.0)
  end
  begin
     id 23
     name lthumb
     direction 0.707107 -6.34941e-011 0.707107   
     length 0.52198   
     axis -90 45 2.85299e-015   XYZ
    dof rx rz
    limits (-45.0 45.0)
           (-45.0 45.0)
  end
  begin
     id 24 
     name rclavicle
     direction -0.825079 0.56158 -0.0622297   
     length 3.39909  
     axis 0 0 0   XYZ 
    dof ry rz
    limits (-10.0 20.0)
           (-20.0 0.0)
  end
  begin
     id 25 
     name rhumerus
     direction -1 -4.48965e-011 1.61691e-027  
     length 4.86725   
     axis -180 30 90   XYZ
    dof rx ry rz
    limits (-90.0 60.0)
           (-90.0 90.0)
           (-90.0 90.0)
  end
  begin
     id 26 
     name rradius
     direction -1 -4.48964e-011 -2.25776e-027   
     length 3.17144   
     axis -180 30 90   XYZ
    dof rx
    limits (-10.0 170.0)
  end
  begin
     id 27 
     name rwrist
     direction -1 -4.48961e-011 -7.31504e-027   
     length 1.58572   
     axis 5.74121e-015 -90 -90   XYZ
    dof ry
    limits (-180.0 0.0)
  end
  begin
     id 28
     name rhand
     direction -1 -4.49013e-011 -1.46301e-026   
     length 0.419368   
     axis 9.33524e-015 -90 -90   XYZ
    dof rx rz
    limits (-90.0 90.0)
           (-45.0 45.0)
  end
  begin
     id 29
     name rfingers
     direction -1 -4.489e-011 -2.92602e-026   
     length 0.338105   
     axis 1.86705e-014 -90 -90   XYZ
    dof rx
    limits (0.0 90.0)
  end
  begin
     id 30
     name rthumb
     direction -0.707107 -6.35022e-011 0.707107   
     length 0.485453   
     axis -90 -45 -2.85299e-015   XYZ
    dof rx rz
    limits (-45.0 45.0)
           (-45.0 45.0)
  end
:hierarchy
  begin
    root lhipjoint rhipjoint lowerback
    lhipjoint lfemur
    lfemur ltibia
    ltibia lfoot
    lfoot ltoes
    rhipjoint rfemur
    rfemur rtibia
    rtibia rfoot
    rfoot rtoes
    lowerback upperback
    upperback thorax
    thorax lowerneck lclavicle rclavicle
    lowerneck upperneck
    upperneck head
    lclavicle lhumerus
    lhumerus lradius
    lradius lwrist
    lwrist lhand lthumb
    lhand lfingers
    rclavicle rhumerus
    rhumerus rradius
    rradius rwrist
    rwrist rhand rthumb
    rhand rfingers
  end

#!OML:ASF H:\Swim 2\Project 1\Capture day 1\Session 1\male.ASF
:FULLY-SPECIFIED
:DEGREES
1036
root 7.36732 9.1463 10.0922 91.8363 1.2606 4.31123
lowerback -4.16108 2.88645 -4.8941
upperback -0.849864 4.05574 2.91863
thorax 0.900409 2.04086 5.95432
lowerneck -17.9046 -11.397 -1.45988
upperneck 39.541 -14.6436 -3.1452
head 17.28 -6.21478 -3.8786
rclavicle -2.70347e-014 -1.02374e-014
rhumerus 21.8018 16.6293 -5.88482
rradius 105.411
rwrist -41.524
rhand -32.4167 4.37961
rfingers 7.12502
rthumb -5.65103 -25.525
lclavicle -2.70347e-014 -1.02374e-014
lhumerus 47.2695 -25.2763 16.7025
lradius 99.6268
lwrist 50.2568
lhand -45.8183 -12.8514
lfingers 7.12502
lthumb -18.5709 16.2822
rfemur -47.3393 11.1329 16.9387
rtibia 48.2708
rfoot 30.9556 7.72991
rtoes 24.0546
lfemur -45.4032 -9.68526 -23.2812
ltibia 52.5468
lfoot 5.22637 6.14885
ltoes 8.7889
1037
root 7.36666 9.14052 10.0813 91.5343 1.26232 4.26876
lowerback -3.98772 2.91372 -4.90934
upperback -0.748719 4.08431 2.91044
thorax 0.903637 2.05157 5.94793
lowerneck -18.2972 -11.4484 -1.42273
upperneck 39.4969 -14.751 -3.12271
head 17.3496 -6.24434 -3.92556
rclavicle -3.18055e-015 -1.04859e-014
rhumerus 21.6045 17.72 -5.66337
rradius 106.638
rwrist -41.6469
rhand -32.9018 4.6553
rfingers 7.12502
rthumb -6.11944 -25.2363
lclavicle -3.18055e-015 -1.04859e-014
lhumerus 47.9062 -26.0419 16.235
lradius 100.913
lwrist 50.3951
lhand -46.065 -12.7024
lfingers 7.12502
lthumb -18.8082 16.4084
rfemur -47.7263 11.0574 16.9438
rtibia 49.0218
rfoot 30.981 8.18574
rtoes 23.7732
lfemur -45.5725 -9.25542 -23.651
ltibia 53.3233
lfoot 5.68588 5.2862
ltoes 9.01088
1038
root 7.36566 9.13546 10.0722 91.2296 1.2675 4.23033
lowerback -3.78328 2.94212 -4.92744
upperback -0.655076 4.11323 2.8991
thorax 0.881666 2.06346 5.93744
lowerneck -18.7114 -11.4898 -1.38133
upperneck 39.4456 -14.8556 -3.07773
head 17.4233 -6.26884 -3.9648
rclavicle -2.54444e-014 -2.38542e-015
rhumerus 21.4218 18.7939 -5.4746
rradius 107.843
rwrist -41.8258
rhand -33.4037 4.83641
rfingers 7.12502
rthumb -6.60394 -25.0406
lclavicle -2.54444e-014 -2.38542e-015
lhumerus 48.5709 -26.8051 15.735
lradius 102.201
lwrist 50.8054
lhand -46.2416 -12.653
lfingers 7.12502
lthumb -18.9781 16.4412
rfemur -48.1143 10.9838 16.9485
rtibia 49.7748
rfoot 31.0421 8.63492
rtoes 23.4987
lfemur -45.7703 -8.82836 -24.0101
ltibia 54.147
lfoot 6.16463 4.60204
ltoes 9.7311
1039
root 7.36431 9.13096 10.0647 90.9248 1.2772 4.19702
lowerback -3.55162 2.96942 -4.94786
upperback -0.575076 4.13963 2.88844
thorax 0.830425 2.07545 5.92651
lowerneck -19.0788 -11.5344 -1.38244
upperneck 39.3576 -14.9822 -2.94629
head 17.4815 -6.29851 -3.95904
rclavicle 1.22451e-013 1.04362e-014
rhumerus 21.2628 19.8687 -5.3111
rradius 109.023
rwrist -42.0737
rhand -33.9191 4.94532
rfingers 7.12502
rthumb -7.10146 -24.9155
lclavicle 1.22451e-013 1.04362e-014
lhumerus 49.2426 -27.5703 15.1989
lradius 103.493
lwrist 51.4441
lhand -46.4424 -12.9398
lfingers 7.12502
lthumb -19.1712 16.1353
rfemur -48.5054 10.9086 16.9519
rtibia 50.537
rfoot 31.1185 9.05243
rtoes 23.2626
lfemur -46.0016 -8.39024 -24.3615
ltibia 55.0232
lfoot 6.70093 4.11255
ltoes 11.4465
1040
root 7.3625 9.12691 10.0588 90.621 1.28942 4.17008
lowerback -3.29659 2.9913 -4.96959
upperback -0.510253 4.15779 2.8787
thorax 0.75134 2.08468 5.91488
lowerneck -19.3885 -11.5765 -1.43162
upperneck 39.2252 -15.1207 -2.72567
head 17.5189 -6.33053 -3.90298
rclavicle 3.65764e-014 9.49197e-015
rhumerus 21.1448 20.9636 -5.16144
rradius 110.177
rwrist -42.4044
rhand -34.4818 5.07545
rfingers 7.12502
rthumb -7.64462 -24.7664
lclavicle 3.65764e-014 9.49197e-015
lhumerus 49.8993 -28.3379 14.611
lradius 104.78
lwrist 52.1996
lhand -46.6544 -13.5502
lfingers 7.12502
lthumb -19.375 15.5046
rfemur -48.8994 10.8373 16.947
rtibia 51.3105
rfoot 31.1948 9.42681
rtoes 23.0818
lfemur -46.267 -7.93675 -24.7104
ltibia 55.9532
lfoot 7.48145 3.86515
ltoes 14.9105
1041
root 7.36106 9.12342 10.0537 90.3718 1.31097 4.18317
lowerback -3.07444 2.99029 -4.97377
upperback -0.473581 4.14624 2.86896
thorax 0.666894 2.08009 5.89383
lowerneck -19.6321 -11.6144 -1.53862
upperneck 39.0445 -15.267 -2.40738
head 17.5343 -6.36377 -3.79017
rclavicle -1.90833e-014 9.44227e-016
rhumerus 21.0921 22.0923 -5.00576
rradius 111.295
rwrist -42.7726
rhand -35.1457 5.29401
rfingers 7.12502
rthumb -8.28534 -24.5235
lclavicle -1.90833e-014 9.44227e-016
lhumerus 50.5221 -29.0953 13.9651
lradius 106.046
lwrist 52.9417
lhand -46.8921 -14.442
lfingers 7.12502
lthumb -19.6036 14.5896
rfemur -49.3559 10.7371 16.9239
rtibia 52.0994
rfoot 31.2547 9.76881
rtoes 22.9435
lfemur -46.6341 -7.51527 -25.0399
ltibia 56.9385
lfoot 7.81354 3.82513
ltoes 17.4417
1042
root 7.35984 9.12052 10.0503 90.1679 1.34018 4.22914
lowerback -2.8832 2.9699 -4.9648
upperback -0.457139 4.1098 2.86043
thorax 0.583095 2.06364 5.86758
lowerneck -19.8302 -11.6474 -1.68469
upperneck 38.8273 -15.415 -2.02294
head 17.5332 -6.39656 -3.63845
rclavicle -6.36111e-014 -2.23136e-014
rhumerus 21.1067 23.2564 -4.84151
rradius 112.38
rwrist -43.1345
rhand -35.9487 5.60939
rfingers 7.12502
rthumb -9.06035 -24.176
lclavicle -6.36111e-014 -2.23136e-014
lhumerus 51.1064 -29.8393 13.2905
lradius 107.273
lwrist 53.5214
lhand -47.1155 -15.4306
lfingers 7.12502
lthumb -19.8183 13.579
rfemur -49.8556 10.6015 16.8901
rtibia 52.8959
rfoot 31.2705 10.114
rtoes 22.7752
lfemur -47.0891 -7.12866 -25.3475
ltibia 57.9707
lfoot 8.17779 3.98082
ltoes 20.1174
1043
root 7.35885 9.1181 10.0488 89.9988 1.38236 4.30045
lowerback -2.71763 2.93229 -4.93673
upperback -0.454925 4.05095 2.85531
thorax 0.503091 2.03628 5.83513
lowerneck -20.016 -11.6662 -1.8478
upperneck 38.6035 -15.5444 -1.61417
head 17.5324 -6.42125 -3.46988
rclavicle -7.95139e-015 1.04362e-015
rhumerus 21.2074 24.4486 -4.65573
rradius 113.427
rwrist -43.4076
rhand -36.8715 5.92949
rfingers 7.12502
rthumb -9.9507 -23.8153
lclavicle -7.95139e-015 1.04362e-015
lhumerus 51.6553 -30.5701 12.5803
lradius 108.445
lwrist 53.8227
lhand -47.3182 -16.3573
lfingers 7.12502
lthumb -20.0131 12.632
rfemur -50.3869 10.4323 16.8587
rtibia 53.6974
rfoot 31.2332 10.4814
rtoes 22.5135
lfemur -47.6196 -6.78889 -25.6192
ltibia 59.0427
lfoot 8.52875 4.22829
ltoes 22.4285
1044
root 7.35792 9.11618 10.0494 89.8563 1.43154 4.38315
lowerback -2.57314 2.88471 -4.89976
upperback -0.461995 3.9796 2.85309
thorax 0.427334 2.00279 5.8018
lowerneck -20.2182 -11.6695 -2.00071
upperneck 38.4013 -15.6457 -1.22946
head 17.5443 -6.43482 -3.31091
rclavicle -1.90833e-014 -4.57205e-015
rhumerus 21.3881 25.6574 -4.44744
rradius 114.445
rwrist -43.6042
rhand -37.8449 6.20159
rfingers 7.12502
rthumb -10.8897 -23.496
lclavicle -1.90833e-014 -4.57205e-015
lhumerus 52.1826 -31.2903 11.8327
lradius 109.548
lwrist 53.7765
lhand -47.4972 -17.0034
lfingers 7.12502
lthumb -20.1852 11.9678
rfemur -50.9389 10.2366 16.8324
rtibia 54.492
rfoot 31.1845 10.8698
rtoes 22.155
lfemur -48.2107 -6.49034 -25.8547
ltibia 60.1415
lfoot 8.85408 4.4384
ltoes 24.1963
